<svg width="60" height="60" viewBox="0 0 60 60" fill="none" xmlns="http://www.w3.org/2000/svg">
<g clip-path="url(#clip0_395_5650)">
<path d="M30 59C46.0163 59 59 46.0163 59 30C59 13.9837 46.0163 1 30 1C13.9837 1 1 13.9837 1 30C1 46.0163 13.9837 59 30 59Z" fill="#9D7458" stroke="#868D7B" stroke-width="2"/>
<path d="M41.2563 18.5985C38.2501 15.5851 34.2466 13.9277 29.992 13.9277C21.2101 13.9277 14.0641 21.0738 14.0641 29.8557C14.0641 32.661 14.7959 35.4017 16.1878 37.8196L13.9277 46.0706L22.3724 43.8536C24.697 45.1235 27.3158 45.7908 29.9848 45.7908H29.992C38.7667 45.7908 46.0706 38.6447 46.0706 29.8628C46.0706 25.6082 44.2626 21.6119 41.2563 18.5985ZM29.992 43.1074C27.61 43.1074 25.2782 42.4689 23.2477 41.2635L22.767 40.9765L17.759 42.2895L19.0936 37.4035L18.7779 36.9013C17.4505 34.7919 16.7546 32.3597 16.7546 29.8557C16.7546 22.559 22.6953 16.6183 29.9992 16.6183C33.5363 16.6183 36.8582 17.9958 39.355 20.4998C41.8518 23.0038 43.3872 26.3257 43.3801 29.8628C43.3801 37.1667 37.2887 43.1074 29.992 43.1074ZM37.2528 33.1919C36.8582 32.991 34.8995 32.0296 34.5336 31.9005C34.1677 31.7641 33.9022 31.6996 33.6368 32.1014C33.3713 32.5031 32.6108 33.3928 32.374 33.6655C32.1444 33.9309 31.9076 33.9668 31.513 33.7659C29.1741 32.5964 27.6387 31.6781 26.0961 29.0306C25.6871 28.3274 26.5051 28.3777 27.2656 26.8566C27.3947 26.5912 27.3302 26.3616 27.2297 26.1607C27.1293 25.9598 26.3329 24.0011 26.0028 23.2047C25.68 22.4298 25.3499 22.5374 25.106 22.5231C24.8764 22.5087 24.6109 22.5087 24.3455 22.5087C24.08 22.5087 23.6495 22.6092 23.2836 23.0038C22.9177 23.4056 21.8917 24.367 21.8917 26.3257C21.8917 28.2844 23.3195 30.1785 23.5132 30.444C23.7141 30.7095 26.3185 34.7273 30.3149 36.4564C32.8404 37.547 33.8305 37.6403 35.0932 37.4537C35.8609 37.3389 37.4465 36.4923 37.7766 35.5596C38.1066 34.6269 38.1066 33.8305 38.0062 33.6655C37.9129 33.4861 37.6474 33.3856 37.2528 33.1919Z" fill="white"/>
</g>
<defs>
<clipPath id="clip0_395_5650">
<rect width="60" height="60" fill="white"/>
</clipPath>
</defs>
</svg>
